# AST/ASF file generated using VICON BodyLanguage
# -----------------------------------------------
:version 1.10
:name VICON
:units
  mass 1.0
  length 0.45
  angle deg
:documentation
   .ast/.asf automatically generated from VICON data using
   VICON BodyBuilder and BodyLanguage model FoxedUp or BRILLIANT.MOD
:root
   order TX TY TZ RX RY RZ
   axis XYZ
   position 0 0 0  
   orientation 0 0 0 
:bonedata
  begin
     id 1 
     name lhipjoint
     direction 0.645893 -0.654526 0.392961 
     length 2.38111 
     axis 0 0 0  XYZ
  end
  begin
     id 2 
     name lfemur
     direction 0.34202 -0.939693 0  
     length 6.6822  
     axis 0 0 20  XYZ
    dof rx ry rz
    limits (-160.0 20.0)
           (-70.0 70.0)
           (-60.0 70.0)
  end
  begin
     id 3 
     name ltibia
     direction 0.34202 -0.939693 0   
     length 6.93904   
     axis 0 0 20   XYZ
    dof rx
    limits (-10.0 170.0)
  end
  begin
     id 4 
     name lfoot
     direction 0.0694967 -0.190941 0.979138   
     length 2.13616   
     axis -90 7.62852e-016 20   XYZ
    dof rx rz
    limits (-45.0 90.0)
           (-70.0 20.0)
  end
  begin
     id 5 
     name ltoes
     direction 1.535e-011 -4.2202e-011 1   
     length 1.07536   
     axis -90 7.62852e-016 20   XYZ
    dof rx
    limits (-90.0 20.0)
  end
  begin
     id 6 
     name rhipjoint
     direction -0.700219 -0.612087 0.367481   
     length 2.54621  
     axis 0 0 0  XYZ 
  end
  begin
     id 7 
     name rfemur
     direction -0.34202 -0.939693 0   
     length 6.55353   
     axis 0 0 -20   XYZ
    dof rx ry rz
    limits (-160.0 20.0)
           (-70.0 70.0)
           (-70.0 60.0)
  end
  begin
     id 8 
     name rtibia
     direction -0.34202 -0.939693 0   
     length 6.8736   
     axis 0 0 -20   XYZ
    dof rx
    limits (-10.0 170.0)
 end
 begin
     id 9 
     name rfoot
     direction -0.0679995 -0.186827 0.980037   
     length 2.1218  
     axis -90 -7.62852e-016 -20   XYZ
    dof rx rz
    limits (-45.0 90.0)
           (-20.0 70.0)
  end
  begin
     id 10 
     name rtoes
     direction -1.53589e-011 -4.21772e-011 1   
     length 1.06864   
     axis -90 -7.62852e-016 -20   XYZ
    dof rx
    limits (-90.0 20.0)
  end
  begin
     id 11 
     name lowerback
     direction -0.0416607 0.996347 -0.0745409   
     length 2.12205   
     axis 0 0 0   XYZ
    dof rx ry rz
    limits (-20.0 45.0)
           (-30.0 30.0)
           (-30.0 30.0)
  end
  begin
     id 12 
     name upperback
     direction -0.000153993 0.999276 -0.0380568   
     length 2.12759   
     axis 0 0 0   XYZ
    dof rx ry rz
    limits (-20.0 45.0)
           (-30.0 30.0)
           (-30.0 30.0)
  end
  begin
     id 13 
     name thorax
     direction 0.0187671 0.999821 -0.00241421   
     length 2.13704   
     axis 0 0 0   XYZ
    dof rx ry rz
    limits (-20.0 45.0)
           (-30.0 30.0)
           (-30.0 30.0)
  end
  begin
     id 14 
     name lowerneck
     direction 0.0268157 0.964865 0.261374   
     length 1.65253   
     axis 0 0 0   XYZ
    dof rx ry rz
    limits (-20.0 45.0)
           (-30.0 30.0)
           (-30.0 30.0)
  end
  begin
     id 15 
     name upperneck
     direction 0.00263774 0.939908 -0.341418   
     length 1.72375   
     axis 0 0 0   XYZ
    dof rx ry rz
    limits (-20.0 45.0)
           (-30.0 30.0)
           (-30.0 30.0)
  end
  begin
     id 16
     name head
     direction -0.00526001 0.989001 -0.147818  
     length 1.74878  
     axis 0 0 0   XYZ
    dof rx ry rz
    limits (-20.0 45.0)
           (-30.0 30.0)
           (-30.0 30.0)
  end
  begin
     id 17 
     name lclavicle
     direction 0.881214 0.461162 -0.103884  
     length 3.25108  
     axis 0 0 0   XYZ
    dof ry rz
    limits (-20.0 10.0)
           (0.0 20.0)
  end
  begin
     id 18 
     name lhumerus
     direction 1 -4.4899e-011 3.38092e-027   
     length 4.87408   
     axis 180 -30 -90   XYZ
    dof rx ry rz
    limits (-60.0 90.0)
           (-90.0 90.0)
           (-90.0 90.0)
  end
  begin
     id 19
     name lradius
     direction 1 -4.48931e-011 9.96288e-027   
     length 2.76729   
     axis 180 -30 -90   XYZ
    dof rx
    limits (-10.0 170.0)
  end
  begin
     id 20
     name lwrist
     direction 1 -4.4896e-011 1.50617e-026   
     length 1.38364   
     axis -9.31234e-015 90 90   XYZ
    dof ry
    limits (-180.0 0.0)
 end
  begin
     id 21 
     name lhand
     direction 1 -4.49038e-011 3.01286e-026   
     length 0.98922   
     axis -1.92217e-014 90 90   XYZ
    dof rx rz
    limits (-90.0 90.0)
           (-45.0 45.0)
  end
  begin
     id 22 
     name lfingers
     direction 1 -4.49051e-011 6.02588e-026   
     length 0.797535   
     axis -3.84436e-014 90 90   XYZ
    dof rx
    limits (0.0 90.0)
  end
  begin
     id 23
     name lthumb
     direction 0.707107 -6.34901e-011 0.707107   
     length 1.14511   
     axis -90 45 2.19363e-014   XYZ
    dof rx rz
    limits (-45.0 45.0)
           (-45.0 45.0)
  end
  begin
     id 24 
     name rclavicle
     direction -0.893894 0.441652 -0.0767889   
     length 3.29361  
     axis 0 0 0   XYZ 
    dof ry rz
    limits (-10.0 20.0)
           (-20.0 0.0)
  end
  begin
     id 25 
     name rhumerus
     direction -1 -4.48945e-011 8.0491e-028  
     length 4.71404   
     axis 180 30 90   XYZ
    dof rx ry rz
    limits (-90.0 60.0)
           (-90.0 90.0)
           (-90.0 90.0)
  end
  begin
     id 26 
     name rradius
     direction -1 -4.48986e-011 9.27795e-027   
     length 2.83468   
     axis 180 30 90   XYZ
    dof rx
    limits (-10.0 170.0)
  end
  begin
     id 27 
     name rwrist
     direction -1 -4.49029e-011 1.5064e-026   
     length 1.41734   
     axis -9.31234e-015 -90 -90   XYZ
    dof ry
    limits (-180.0 0.0)
  end
  begin
     id 28
     name rhand
     direction -1 -4.48857e-011 3.01165e-026   
     length 0.868195   
     axis -1.92217e-014 -90 -90   XYZ
    dof rx rz
    limits (-90.0 90.0)
           (-45.0 45.0)
  end
  begin
     id 29
     name rfingers
     direction -1 -4.49048e-011 6.02585e-026   
     length 0.699961   
     axis -3.84436e-014 -90 -90   XYZ
    dof rx
    limits (0.0 90.0)
  end
  begin
     id 30
     name rthumb
     direction -0.707107 -6.34854e-011 0.707107   
     length 1.00501   
     axis -90 -45 -2.19363e-014   XYZ
    dof rx rz
    limits (-45.0 45.0)
           (-45.0 45.0)
  end
:hierarchy
  begin
    root lhipjoint rhipjoint lowerback
    lhipjoint lfemur
    lfemur ltibia
    ltibia lfoot
    lfoot ltoes
    rhipjoint rfemur
    rfemur rtibia
    rtibia rfoot
    rfoot rtoes
    lowerback upperback
    upperback thorax
    thorax lowerneck lclavicle rclavicle
    lowerneck upperneck
    upperneck head
    lclavicle lhumerus
    lhumerus lradius
    lradius lwrist
    lwrist lhand lthumb
    lhand lfingers
    rclavicle rhumerus
    rhumerus rradius
    rradius rwrist
    rwrist rhand rthumb
    rhand rfingers
  end

#!OML:ASF H:\ManfredObstacles\Project 1\Capture day 2\Session 1\male.ASF
:FULLY-SPECIFIED
:DEGREES
1
root 0.632319 15.9405 37.4185 -168.176 1.02603 179.238
lowerback -5.54966 1.28648 -3.47
upperback 3.15883 2.20491 -1.68826
thorax 6.35243 1.0175 0.428948
lowerneck -33.3993 -5.37483 -13.3353
upperneck 38.6393 -8.84824 11.4947
head 24.5651 -4.59426 6.09393
rclavicle -1.40143e-014 -1.98785e-014
rhumerus -46.7829 26.8714 -98.5334
rradius 99.9077
rwrist 5.89575
rhand -13.0365 -2.02863
rfingers 7.12502
rthumb 13.058 -31.5999
lclavicle -1.40143e-014 -1.98785e-014
lhumerus -59.501 -30.9581 93.9117
lradius 109.085
lwrist -15.2426
lhand -11.9021 3.54487
lfingers 7.12502
lthumb 14.1514 33.0429
rfemur 0.810437 -2.29351 21.5039
rtibia 57.4371
rfoot 22.8246 -13.9004
rtoes -19.9966
lfemur -34.4235 -5.10631 -21.2124
ltibia 33.6521
lfoot 8.29813 13.6298
ltoes -4.63019
2
root 0.621366 15.8346 37.0335 -168.461 0.685844 178.984
lowerback -5.36861 1.12095 -3.89195
upperback 3.29835 2.02904 -1.71096
thorax 6.39063 0.917028 0.619497
lowerneck -27.9133 -7.80685 -20.5854
upperneck 36.1631 -12.9241 17.235
head 24.1429 -6.94914 9.56025
rclavicle 1.98785e-016 9.14409e-015
rhumerus -47.4916 25.2298 -98.234
rradius 98.6828
rwrist 6.35586
rhand -13.3621 -2.16004
rfingers 7.12502
rthumb 12.7441 -31.7511
lclavicle 1.98785e-016 9.14409e-015
lhumerus -57.8982 -32.0976 94.2522
lradius 108.431
lwrist -15.0054
lhand -12.1698 3.65299
lfingers 7.12502
lthumb 13.8934 33.1689
rfemur -0.7786 -3.13296 21.008
rtibia 61.0131
rfoot 21.172 -14.4263
rtoes -20.0555
lfemur -33.5285 -5.07018 -21.9797
ltibia 35.9529
lfoot 5.86277 15.7005
ltoes -5.01028
3
root 0.609343 15.7698 36.6484 -168.758 0.539999 178.7
lowerback -4.90389 1.01791 -4.35663
upperback 3.28317 1.91183 -1.73961
thorax 6.10073 0.850366 0.825911
lowerneck -33.0657 -5.47328 -13.1618
upperneck 38.3537 -9.33061 11.8081
head 24.3487 -4.6918 6.05404
rclavicle 1.27222e-014 -1.70955e-014
rhumerus -48.668 23.1927 -97.9968
rradius 97.3352
rwrist 6.6975
rhand -13.5598 -2.12396
rfingers 7.12502
rthumb 12.5535 -31.7268
lclavicle 1.27222e-014 -1.70955e-014
lhumerus -56.2547 -33.0901 94.8963
lradius 107.375
lwrist -15.0358
lhand -12.7372 3.71257
lfingers 7.12502
lthumb 13.3465 33.2651
rfemur -2.71493 -3.67853 20.4587
rtibia 64.3022
rfoot 19.8141 -14.1517
rtoes -20.4948
lfemur -32.5647 -4.97396 -22.6022
ltibia 37.6358
lfoot 4.03413 16.9827
ltoes -5.75584
4
root 0.603002 15.6955 36.2753 -169.144 0.559772 178.304
lowerback -4.37307 0.95509 -5.07029
upperback 3.43832 1.87735 -1.774
thorax 5.94624 0.815544 1.17441
lowerneck -33.1243 -5.55229 -12.983
upperneck 38.1127 -9.52018 11.8936
head 24.1954 -4.68529 5.98479
rclavicle 1.25234e-014 -3.69739e-014
rhumerus -49.5456 21.3101 -97.5147
rradius 95.9651
rwrist 6.98708
rhand -14.0104 -2.37477
rfingers 7.12502
rthumb 12.1191 -32.0038
lclavicle 1.25234e-014 -3.69739e-014
lhumerus -54.3044 -34.1685 95.4489
lradius 106.495
lwrist -14.8178
lhand -13.1707 4.20831
lfingers 7.12502
lthumb 12.9286 33.7878
rfemur -4.65885 -4.08291 19.7943
rtibia 67.5572
rfoot 18.2664 -14.2932
rtoes -20.6209
lfemur -31.3101 -4.6805 -23.3526
ltibia 39.2047
lfoot 2.38496 18.1613
ltoes -6.8427
5
root 0.596082 15.6124 35.9048 -169.504 0.5551 177.902
lowerback -3.85964 0.886837 -5.79167
upperback 3.56344 1.82724 -1.79696
thorax 5.77264 0.773512 1.53778
lowerneck -33.8118 -5.21543 -11.7844
upperneck 38.1785 -9.16967 11.1961
head 24.1364 -4.39003 5.45109
rclavicle -6.75868e-015 2.78299e-014
rhumerus -50.4724 19.4263 -96.916
rradius 94.6756
rwrist 7.33335
rhand -14.3597 -2.58694
rfingers 7.12502
rthumb 11.7823 -32.2355
lclavicle -6.75868e-015 2.78299e-014
lhumerus -52.3806 -35.2284 95.9238
lradius 105.668
lwrist -14.6939
lhand -13.5464 4.61464
lfingers 7.12502
lthumb 12.5665 34.2167
rfemur -6.60747 -4.51313 19.1257
rtibia 70.7158
rfoot 16.7937 -14.4397
rtoes -20.7741
lfemur -29.9791 -4.44805 -24.0763
ltibia 40.4858
lfoot 0.937082 19.3642
ltoes -7.87414
6
root 0.591309 15.5343 35.5399 -169.869 0.638397 177.431
lowerback -3.30063 0.842506 -6.64958
upperback 3.70629 1.81076 -1.81211
thorax 5.5891 0.744721 1.98706
lowerneck -34.6427 -4.78158 -10.3778
upperneck 38.2641 -8.68961 10.3194
head 24.0851 -4.03227 4.82289
rclavicle -8.74653e-015 -1.07344e-014
rhumerus -51.417 17.5579 -96.1678
rradius 93.4209
rwrist 7.675
rhand -14.7186 -2.83728
rfingers 7.12502
rthumb 11.4361 -32.5054
lclavicle -8.74653e-015 -1.07344e-014
lhumerus -50.3589 -36.2415 96.3704
lradius 104.909
lwrist -14.6557
lhand -13.8557 5.09194
lfingers 7.12502
lthumb 12.2682 34.7121
rfemur -8.69175 -4.84445 18.3951
rtibia 73.7921
rfoot 15.2912 -14.648
rtoes -20.8878
lfemur -28.532 -4.15315 -24.8348
ltibia 41.5152
lfoot -0.244703 20.4041
ltoes -9.0381
